#!OML:ASF H:\Terrain\Patient Classification 1\Walking\liu\liu.ASF
:FULLY-SPECIFIED
:DEGREES
114
root 9.361740 16.196699 -21.441000 4.181150 3.580170 4.721810
lowerback -4.055690 -1.593955 -2.862405
upperback -0.500465 -1.913740 1.154630
thorax 2.020480 -1.006060 2.590355
lowerneck -9.721350 -2.569905 -6.661100
upperneck 10.735100 -2.931485 5.403350
head 5.435350 -1.259170 2.636595
rclavicle 0.000000 -0.000000
rhumerus -23.209600 4.745100 -42.230350
rradius 17.781401
rwrist -9.692700
rhand -14.751050 -11.969200
rfingers 3.562510
rthumb -1.418290 -26.949650
lclavicle 0.000000 -0.000000
lhumerus -12.460200 -13.326000 46.310501
lradius 21.233601
lwrist 6.520050
lhand -6.540700 -12.761400
lfingers 3.562510
lthumb 6.507400 2.025615
rfemur -20.155951 5.818250 3.644620
rtibia 14.360900
rfoot -11.256500 -4.277910
rtoes -9.318850
lfemur 6.775550 0.280781 -14.493000
ltibia 0.000000
lfoot -7.016300 1.354640
ltoes -1.689890
115
root 9.354020 16.174900 -21.302401 4.231690 4.031380 4.633090
lowerback -4.073565 -1.653500 -2.815100
upperback -0.495400 -1.996335 1.157430
thorax 2.043935 -1.047060 2.554480
lowerneck -9.664450 -2.589510 -6.632500
upperneck 10.655250 -2.975460 5.423700
head 5.401150 -1.275340 2.629865
rclavicle 0.000000 0.000000
rhumerus -23.196199 4.569025 -42.127151
rradius 17.640850
rwrist -9.589150
rhand -14.666550 -11.652550
rfingers 3.562510
rthumb -1.336715 -26.634050
lclavicle 0.000000 0.000000
lhumerus -12.681250 -13.366750 46.456150
lradius 21.306850
lwrist 6.508600
lhand -6.378950 -12.647950
lfingers 3.562510
lthumb 6.663300 2.128985
rfemur -20.298201 6.119150 3.383565
rtibia 14.118400
rfoot -11.725500 -4.722180
rtoes -9.504400
lfemur 7.018400 0.236183 -14.362650
ltibia 0.000000
lfoot -7.190350 1.212795
ltoes -1.425685
116
root 9.342890 16.148899 -21.162600 4.385290 4.162020 4.727800
lowerback -4.171830 -1.684455 -2.860350
upperback -0.481273 -2.026140 1.115630
thorax 2.117750 -1.064440 2.526685
lowerneck -9.719250 -2.561850 -6.566650
upperneck 10.668000 -2.968930 5.493450
head 5.415300 -1.257420 2.646550
rclavicle 0.000000 -0.000000
rhumerus -23.172850 4.427580 -42.088650
rradius 17.540350
rwrist -9.501250
rhand -14.753250 -11.579850
rfingers 3.562510
rthumb -1.420440 -26.560249
lclavicle 0.000000 -0.000000
lhumerus -12.854900 -13.389900 46.556000
lradius 21.287001
lwrist 6.477350
lhand -6.425500 -12.698550
lfingers 3.562510
lthumb 6.618400 2.081285
rfemur -20.520800 6.183300 3.204560
rtibia 13.902050
rfoot -11.843700 -4.993410
rtoes -9.786500
lfemur 7.213600 0.335340 -14.335050
ltibia 0.000000
lfoot -7.405000 1.038790
ltoes -1.316755
117
root 9.328610 16.125200 -21.029100 4.543250 4.375630 4.954440
lowerback -4.170395 -1.671010 -2.963160
upperback -0.520880 -1.996585 1.054405
thorax 2.073985 -1.048530 2.525490
lowerneck -9.628300 -2.542610 -6.606850
upperneck 10.616600 -2.975785 5.641450
head 5.386450 -1.249040 2.707240
rclavicle -0.000000 0.000000
rhumerus -23.299650 4.189445 -41.982601
rradius 17.477350
rwrist -9.459050
rhand -14.749600 -11.384450
rfingers 3.562510
rthumb -1.416920 -26.364901
lclavicle -0.000000 0.000000
lhumerus -13.052300 -13.499550 46.796051
lradius 21.193251
lwrist 6.381700
lhand -6.454600 -12.745000
lfingers 3.562510
lthumb 6.590400 2.036655
rfemur -20.728750 6.187300 2.949490
rtibia 13.733100
rfoot -11.918700 -5.186150
rtoes -9.797050
lfemur 7.422100 0.388582 -14.370900
ltibia -0.000000
lfoot -7.581450 0.859805
ltoes -1.262860
118
root 9.315570 16.107100 -20.893400 4.469860 4.855270 5.214280
lowerback -4.010235 -1.699665 -3.097620
upperback -0.541215 -2.031460 1.025745
thorax 1.975080 -1.064475 2.575095
lowerneck -9.588400 -2.569605 -6.711450
upperneck 10.628600 -3.007955 5.719000
head 5.394350 -1.264750 2.750120
rclavicle 0.000000 -0.000000
rhumerus -23.350100 4.008815 -41.883400
rradius 17.281601
rwrist -9.248900
rhand -14.844500 -11.252200
rfingers 3.562510
rthumb -1.508575 -26.231400
lclavicle 0.000000 -0.000000
lhumerus -13.373300 -13.585300 47.092999
lradius 21.230200
lwrist 6.269350
lhand -6.250850 -12.593400
lfingers 3.562510
lthumb 6.786750 2.175355
rfemur -20.741400 6.246200 2.635965
rtibia 13.608150
rfoot -12.151000 -5.454950
rtoes -9.615000
lfemur 7.759000 0.325727 -14.404400
ltibia -0.000000
lfoot -7.673500 0.666400
ltoes -1.033750
119
root 9.305690 16.098801 -20.750700 4.517150 5.265240 5.445620
lowerback -3.996120 -1.772155 -3.215150
upperback -0.538440 -2.118730 1.027635
thorax 1.990905 -1.110300 2.632400
lowerneck -9.635350 -2.624175 -6.871100
upperneck 10.686450 -3.047895 5.772750
head 5.438250 -1.289230 2.793585
rclavicle -0.000000 0.000000
rhumerus -23.370350 4.104920 -41.926151
rradius 17.161051
rwrist -9.026100
rhand -15.138250 -11.629100
rfingers 3.562510
rthumb -1.792215 -26.603901
lclavicle -0.000000 0.000000
lhumerus -13.739800 -13.623100 47.337952
lradius 21.335501
lwrist 6.210050
lhand -6.071200 -12.443750
lfingers 3.562510
lthumb 6.959900 2.313275
rfemur -20.779650 6.222100 2.395725
rtibia 13.496700
rfoot -12.211950 -5.664050
rtoes -9.314250
lfemur 8.014450 0.289546 -14.432750
ltibia 0.000000
lfoot -7.686200 0.568760
ltoes -1.420885
120
root 9.292840 16.090300 -20.607401 4.788760 5.479890 5.363900
lowerback -4.125405 -1.785315 -3.169185
upperback -0.570370 -2.133635 1.056810
thorax 2.030695 -1.117390 2.629320
lowerneck -9.562250 -2.660120 -6.972150
upperneck 10.629900 -3.082650 5.809750
head 5.413850 -1.310900 2.817550
rclavicle -0.000000 0.000000
rhumerus -23.535999 4.059105 -41.826950
rradius 17.219650
rwrist -9.019100
rhand -15.019850 -11.728850
rfingers 3.562510
rthumb -1.677880 -26.705500
lclavicle -0.000000 0.000000
lhumerus -13.986850 -13.644700 47.597851
lradius 21.224199
lwrist 6.128600
lhand -5.987850 -12.311900
lfingers 3.562510
lthumb 7.040250 2.439595
rfemur -20.964350 6.288750 2.302580
rtibia 13.388650
rfoot -12.081250 -6.107900
rtoes -10.058700
lfemur 8.130700 0.337738 -14.289450
ltibia -0.000000
lfoot -7.732600 0.463800
ltoes -1.842590
121
root 9.276140 16.074100 -20.465500 4.939340 5.737160 5.178970
lowerback -4.163065 -1.808020 -3.099800
upperback -0.567715 -2.168875 1.083930
thorax 2.056530 -1.134855 2.611765
lowerneck -9.616600 -2.646995 -6.865200
upperneck 10.633750 -3.073180 5.746000
head 5.418050 -1.303305 2.776340
rclavicle -0.000000 -0.000000
rhumerus -23.544201 3.787330 -41.581551
rradius 17.175800
rwrist -9.090500
rhand -14.618700 -11.403950
rfingers 3.562510
rthumb -1.290505 -26.386000
lclavicle -0.000000 -0.000000
lhumerus -14.081500 -13.493550 47.747101
lradius 20.973900
lwrist 5.953000
lhand -5.790900 -12.098450
lfingers 3.562510
lthumb 7.229950 2.639645
rfemur -21.060900 6.320250 2.321715
rtibia 13.257900
rfoot -12.543700 -6.740800
rtoes -11.043400
lfemur 8.296950 0.373498 -14.068000
ltibia 0.000000
lfoot -7.786300 0.305952
ltoes -2.044660
122
root 9.258860 16.048300 -20.325100 5.012830 6.060900 5.270320
lowerback -4.120195 -1.869065 -3.162495
upperback -0.555885 -2.246225 1.063410
thorax 2.058990 -1.174525 2.616675
lowerneck -9.732200 -2.644130 -6.679150
upperneck 10.690600 -3.078045 5.600550
head 5.449750 -1.303765 2.689775
rclavicle 0.000000 0.000000
rhumerus -23.471100 3.700465 -41.577702
rradius 17.033951
rwrist -9.381850
rhand -14.763200 -11.222950
rfingers 3.562510
rthumb -1.430050 -26.203251
lclavicle 0.000000 0.000000
lhumerus -14.240400 -13.271300 47.839699
lradius 20.770599
lwrist 5.712250
lhand -5.543450 -12.066000
lfingers 3.562510
lthumb 7.468400 2.654695
rfemur -21.058050 6.156950 2.291680
rtibia 13.098800
rfoot -12.452350 -6.845950
rtoes -11.193800
lfemur 8.505400 0.374498 -13.993700
ltibia 0.000000
lfoot -7.735050 0.193477
ltoes -2.220580
123
root 9.240340 16.024700 -20.180599 5.226530 6.200690 5.469260
lowerback -4.135030 -1.882805 -3.260900
upperback -0.592185 -2.254090 1.036915
thorax 2.035665 -1.177950 2.643480
lowerneck -9.767650 -2.675925 -6.633850
upperneck 10.713050 -3.119865 5.544600
head 5.467250 -1.324605 2.654475
rclavicle -0.000000 0.000000
rhumerus -23.508101 3.654825 -41.620602
rradius 16.892799
rwrist -9.518350
rhand -15.039650 -11.302400
rfingers 3.562510
rthumb -1.697030 -26.278749
lclavicle -0.000000 0.000000
lhumerus -14.509800 -13.183150 48.048500
lradius 20.567450
lwrist 5.480500
lhand -5.470650 -12.177900
lfingers 3.562510
lthumb 7.538550 2.537560
rfemur -21.136400 5.904400 2.273025
rtibia 13.002250
rfoot -12.318800 -6.666650
rtoes -10.951050
lfemur 8.670350 0.452593 -13.988300
ltibia -0.000000
lfoot -7.700600 0.114022
ltoes -2.720670
124
root 9.221290 16.014500 -20.030399 5.414980 6.342220 5.396140
lowerback -4.194055 -1.888600 -3.223300
upperback -0.589755 -2.261900 1.051025
thorax 2.070575 -1.182425 2.632635
lowerneck -9.768450 -2.686905 -6.634550
upperneck 10.603700 -3.125695 5.542850
head 5.428050 -1.326580 2.649210
rclavicle -0.000000 -0.000000
rhumerus -23.539949 3.459095 -41.460499
rradius 16.828251
rwrist -9.103650
rhand -14.860150 -11.639000
rfingers 3.562510
rthumb -1.523650 -26.618000
lclavicle -0.000000 -0.000000
lhumerus -14.711950 -13.098100 48.233349
lradius 20.359949
lwrist 5.308850
lhand -5.550250 -12.160750
lfingers 3.562510
lthumb 7.461850 2.560430
rfemur -21.227551 5.641450 2.452460
rtibia 13.031950
rfoot -12.110400 -6.611100
rtoes -10.799850
lfemur 8.865000 0.536295 -13.824300
ltibia -0.000000
lfoot -7.710700 -0.010834
ltoes -3.199885
